<?xml version="1.0" encoding="UTF-8" standalone="no"?>
<!-- Generator: Gravit.io -->

<svg
   xmlns:dc="http://purl.org/dc/elements/1.1/"
   xmlns:cc="http://creativecommons.org/ns#"
   xmlns:rdf="http://www.w3.org/1999/02/22-rdf-syntax-ns#"
   xmlns:svg="http://www.w3.org/2000/svg"
   xmlns="http://www.w3.org/2000/svg"
   xmlns:sodipodi="http://sodipodi.sourceforge.net/DTD/sodipodi-0.dtd"
   xmlns:inkscape="http://www.inkscape.org/namespaces/inkscape"
   style="isolation:isolate"
   viewBox="0 0 1220 920"
   width="900"
   height="auto"
   id="svg25475"
   version="1.1"
   inkscape:version="0.91 r13725"
   sodipodi:docname="stopcovid19.svg">
  <metadata
     id="metadata25501">
    <rdf:RDF>
      <cc:Work
         rdf:about="">
        <dc:format>image/svg+xml</dc:format>
        <dc:type
           rdf:resource="http://purl.org/dc/dcmitype/StillImage" />
        <dc:title></dc:title>
        <cc:license
           rdf:resource="http://creativecommons.org/publicdomain/zero/1.0/" />
        <dc:creator>
          <cc:Agent>
            <dc:title>j4p4n</dc:title>
          </cc:Agent>
        </dc:creator>
      </cc:Work>
      <cc:License
         rdf:about="http://creativecommons.org/publicdomain/zero/1.0/">
        <cc:permits
           rdf:resource="http://creativecommons.org/ns#Reproduction" />
        <cc:permits
           rdf:resource="http://creativecommons.org/ns#Distribution" />
        <cc:permits
           rdf:resource="http://creativecommons.org/ns#DerivativeWorks" />
      </cc:License>
    </rdf:RDF>
  </metadata>
  <sodipodi:namedview
     pagecolor="#ffffff"
     bordercolor="#666666"
     borderopacity="1"
     objecttolerance="10"
     gridtolerance="10"
     guidetolerance="10"
     inkscape:pageopacity="0"
     inkscape:pageshadow="2"
     inkscape:window-width="1916"
     inkscape:window-height="1035"
     id="namedview25499"
     showgrid="false"
     showguides="true"
     inkscape:guide-bbox="true"
     fit-margin-top="0"
     fit-margin-left="0"
     fit-margin-right="0"
     fit-margin-bottom="0"
     inkscape:zoom="0.395"
     inkscape:cx="242.80981"
     inkscape:cy="670.46818"
     inkscape:window-x="4"
     inkscape:window-y="1"
     inkscape:window-maximized="1"
     inkscape:current-layer="svg25475" />
  <defs
     id="defs25477">
    <clipPath
       id="_clipPath_zNMc8mTeoN30gkUzd7glWakACWVBWb02">
      <rect
         width="450"
         height="450"
         id="rect25480"
         x="0"
         y="0" />
    </clipPath>
  </defs>
  <g
     clip-path="url(#_clipPath_zNMc8mTeoN30gkUzd7glWakACWVBWb02)"
     id="g25482"
     transform="matrix(2.1435033,0,0,2.2856013,156.01823,-48.285614)">
    <g
       id="Group">
      <path
         d="m 300.587,315.19 c -12.094,0 -6.067,-28.179 -6.067,-32.24 1.027,-2.006 -9.051,-121.916 -9.051,-121.916 1.028,-4.062 3.024,-9.101 10.078,-9.101 l 2.006,0 c 16.145,0 30.235,-13.102 30.235,-29.207 0,-16.145 -13.102,-29.257 -30.235,-29.257 -16.095,0 -30.235,13.112 -30.235,29.257 0,3.024 0,6.017 1.028,9.051 0,0 6.017,15.117 -7.054,13.111 0,0 -113.884,39.285 -118.923,40.313 -14.14,25.196 -50.391,12.094 -61.497,4.011 -3.024,-4.011 -9.051,-7.044 -16.095,-7.044 -12.216,0.087 -22.103,9.956 -22.213,22.172 1.028,11.096 11.106,21.174 23.2,21.174 4.062,0 9.101,-1.028 12.094,-3.023 18.141,-9.071 51.409,-3.044 55.43,13.101 l 0,1.028 c 1.008,2.983 24.188,49.363 27.222,53.374 15.117,28.229 -22.213,39.336 -22.213,39.336 -10.078,0 -19.128,9.05 -19.128,20.156 0,12.084 10.078,22.162 22.172,22.162 12.073,0 22.152,-10.078 22.152,-22.172 3.033,-23.18 15.117,-38.297 37.329,-39.325 2.984,1.028 57.436,-2.983 61.447,-4.011 16.146,3.023 7.055,16.145 7.055,38.297 0,16.105 13.102,29.227 30.235,29.227 16.135,0 30.234,-13.122 30.234,-29.227 1.018,-16.125 -12.094,-29.247 -29.216,-29.247 l 0.01,0 z"
         id="path25485"
         inkscape:connector-curvature="0"
         style="fill:#2e7d32" />
      <path
         d="m 367.123,167.06 c -9.101,0 -16.145,4.052 -19.179,12.074 -9.05,13.112 -28.219,16.145 -40.313,10.078 -2.005,-5.039 -129.001,-39.285 -129.001,-38.257 -16.105,9.051 -31.222,-19.178 -30.234,-32.29 l 0,-0.978 c 1.017,-3.033 1.017,-6.067 1.017,-9.1 0,-16.095 -13.101,-29.207 -30.234,-29.207 -16.146,0 -30.235,13.102 -30.235,29.207 0,13.111 9.05,23.19 19.129,28.229 17.173,7.054 40.312,27.211 38.307,41.34 7.055,12.084 -9.05,74.559 -8.063,79.598 -9.06,9.101 -27.211,7.055 -34.256,4.062 -3.023,-4.062 -9.05,-6.067 -15.117,-6.067 -16.145,0 -30.234,13.101 -30.234,29.206 0,16.146 13.101,29.257 30.234,29.257 10.078,0 18.141,-4.061 24.168,-12.094 9.1,-13.101 24.218,-25.195 37.329,-25.195 2.006,2.993 164.235,-60.469 164.235,-61.487 1.028,-6.067 25.195,-12.094 46.38,-7.055 l 6.067,0 c 12.084,0 22.162,-10.078 22.162,-22.152 0,-12.134 -10.078,-19.179 -22.172,-19.179 l 0.01,0.01 z"
         id="path25487"
         inkscape:connector-curvature="0"
         style="fill:#4caf50" />
      <path
         d="m 315.704,225.514 c 0,50.079 -40.625,90.704 -90.704,90.704 -50.079,0 -90.704,-40.625 -90.704,-90.704 0,-50.079 40.625,-90.704 90.704,-90.704 50.079,0 90.704,40.625 90.704,90.704 z"
         id="path25489"
         inkscape:connector-curvature="0"
         style="fill:#4caf50" />
      <path
         d="m 248.18,311.179 c 3.044,-6.067 -8.063,-8.063 -17.113,-8.063 -9.101,0 -18.151,5.039 -16.145,11.086 24.167,36.262 6.067,41.301 -5.039,48.396 -9.051,4.011 -15.118,15.117 -15.118,25.195 0,16.095 13.102,29.207 30.235,29.207 17.133,0 30.235,-13.102 30.235,-29.207 1.028,-28.229 -17.133,-67.564 -7.055,-76.614 z m 126.965,-56.458 c -6.017,0 -12.084,1.028 -16.095,4.061 -18.151,7.045 -34.296,-6.067 -46.38,-14.14 -6.016,-4.011 -13.101,6.068 -15.117,9.101 -2.006,3.024 -5.039,17.123 7.055,17.123 20.156,-7.055 45.352,28.219 45.352,28.219 4.051,10.078 15.117,16.105 27.241,16.105 16.095,0 30.235,-13.061 30.235,-29.207 -3.034,-18.141 -16.146,-31.262 -32.291,-31.262 z M 198.776,79.38 c 19.179,39.285 18.151,54.402 7.096,58.454 -9.101,7.054 6.016,16.105 17.122,14.109 11.056,-2.016 21.134,-7.055 14.09,-17.133 -17.123,-30.235 5.039,-50.391 5.039,-50.391 7.055,-4.011 12.094,-13.102 12.094,-22.172 C 254.217,46.122 241.145,33 223.982,33 c -17.133,0 -30.235,13.112 -30.235,29.257 0,4.011 1.018,9.05 3.024,13.102 0,2.993 0,2.993 2.016,4.021 l -0.011,0 z"
         id="path25491"
         inkscape:connector-curvature="0"
         style="fill:#8bc34a" />
      <path
         d="m 208.855,225.514 c -16.095,0 -30.235,-13.102 -30.235,-29.207 0,-16.145 13.112,-29.257 30.235,-29.257 17.173,0 30.234,13.112 30.234,29.257 0,16.095 -13.061,29.207 -30.234,29.207 z"
         id="path25493"
         inkscape:connector-curvature="0"
         style="fill:#c5e1a5" />
      <path
         d="m 193.737,269.838 c -9.05,0 -15.117,-6.017 -15.117,-15.117 0,-9.051 6.067,-15.118 15.117,-15.118 9.101,0 15.118,6.067 15.118,15.118 0,9.1 -6.017,15.117 -15.118,15.117 z"
         id="path25495"
         inkscape:connector-curvature="0"
         style="fill:#f1f8e9" />
      <path
         d="m 247.172,285.983 c -12.094,0 -22.172,-10.078 -22.172,-22.172 0,-12.074 10.078,-22.152 22.172,-22.152 12.074,0 22.152,10.078 22.152,22.162 0,12.084 -10.078,22.162 -22.162,22.162 l 0.01,0 z"
         id="path25497"
         inkscape:connector-curvature="0"
         style="fill:#dcedc8" />
    </g>
  </g>
  <g
     id="g26107"
     transform="matrix(2.0118482,0,0,1.9555539,186.04797,35.512813)">
    <rect
       ry="14.170931"
       y="179.23727"
       x="-61.016945"
       height="96.61998"
       width="547.24579"
       id="rect26043"
       style="opacity:1;fill:#000000;fill-opacity:1;stroke:none;stroke-width:3;stroke-linecap:round;stroke-linejoin:round;stroke-miterlimit:4;stroke-dasharray:none;stroke-opacity:1" />
    <g
       id="text26045"
       style="font-style:normal;font-weight:normal;font-size:28.10191154px;line-height:125%;font-family:sans-serif;letter-spacing:0px;word-spacing:0px;fill:#000000;fill-opacity:1;stroke:#ff0000;stroke-width:2.5999999;stroke-linecap:round;stroke-linejoin:round;stroke-miterlimit:4;stroke-dasharray:none;stroke-opacity:1"
       transform="scale(0.91118091,1.0974769)">
      <g
         id="g26079">
        <g
           id="g26093">
          <path
             id="path26050"
             style="font-style:normal;font-variant:normal;font-weight:normal;font-stretch:normal;font-size:63.22929764px;font-family:'Arial Rounded MT Bold';-inkscape-font-specification:'Arial Rounded MT Bold, ';fill:#ff0000;fill-opacity:1;stroke:#ff0000;stroke-width:2.5999999;stroke-linecap:round;stroke-linejoin:round;stroke-miterlimit:4;stroke-dasharray:none;stroke-opacity:1"
             d="m 16.010729,216.06937 q 0,4.1062 -2.130284,7.37881 -2.09941,3.27261 -6.1747361,5.12503 -4.0753258,1.85243 -9.663462,1.85243 -6.6995887,0 -11.0527779,-2.53165 -3.087368,-1.82154 -5.03241,-4.84716 -1.914168,-3.0565 -1.914168,-5.92775 0,-1.66718 1.142326,-2.84038 1.1732,-1.20407 2.963874,-1.20407 1.451063,0 2.43902,0.92621 1.018832,0.92621 1.728927,2.74775 0.864463,2.16116 1.8524204,3.61223 1.0188314,1.45106 2.8403786,2.40814 1.8215471,0.92621 4.7854204,0.92621 4.0753259,0 6.6069677,-1.88329 2.5625154,-1.91417 2.5625154,-4.75455 0,-2.25378 -1.3893156,-3.64309 -1.3584419,-1.42019 -3.5504732,-2.16116 -2.16115767,-0.74097 -5.804252,-1.57456 -4.8780415,-1.14232 -8.1815257,-2.65513 -3.27261,-1.54369 -5.217652,-4.16795 -1.914168,-2.65514 -1.914168,-6.5761 0,-3.73571 2.037663,-6.63784 2.037663,-2.90212 5.896873,-4.44581 3.8592102,-1.57455 9.0768622,-1.57455 4.1679468,0 7.1935675,1.0497 3.0564944,1.01883 5.0632833,2.74776 2.00679,1.69805 2.933,3.58135 0.92621,1.88329 0.92621,3.67396 0,1.63631 -1.173199,2.96388 -1.142327,1.29669 -2.8712528,1.29669 -1.5745577,0 -2.408147,-0.77184 -0.8027157,-0.80272 -1.7597998,-2.59339 -1.2349473,-2.56252 -2.9638734,-3.9827 -1.7289261,-1.45107 -5.5572624,-1.45107 -3.5504733,0 -5.7425046,1.57456 -2.161158,1.54368 -2.161158,3.73572 0,1.35844 0.7409687,2.3464 0.7409683,0.98795 2.0376629,1.69805 1.2966946,0.71009 2.6242628,1.11145 1.3275683,0.40136 4.38406266,1.1732 3.82833634,0.89534 6.91570444,1.97592 3.1182417,1.08057 5.2793995,2.62426 2.192031,1.54368 3.396105,3.92096 1.234947,2.3464 1.234947,5.77337 z"
             inkscape:connector-curvature="0" />
          <path
             id="path26052"
             style="font-style:normal;font-variant:normal;font-weight:normal;font-stretch:normal;font-size:63.22929764px;font-family:'Arial Rounded MT Bold';-inkscape-font-specification:'Arial Rounded MT Bold, ';fill:#ff0000;fill-opacity:1;stroke:#ff0000;stroke-width:2.5999999;stroke-linecap:round;stroke-linejoin:round;stroke-miterlimit:4;stroke-dasharray:none;stroke-opacity:1"
             d="m 53.120895,191.95703 -10.003073,0 0,32.88047 q 0,2.84038 -1.265821,4.22969 -1.265821,1.35845 -3.27261,1.35845 -2.037663,0 -3.334357,-1.38932 -1.265821,-1.38932 -1.265821,-4.19882 l 0,-32.88047 -10.003073,0 q -2.346399,0 -3.488726,-1.01883 -1.142326,-1.04971 -1.142326,-2.74776 0,-1.7598 1.1732,-2.77863 1.204074,-1.01883 3.457852,-1.01883 l 29.144755,0 q 2.377273,0 3.519599,1.0497 1.1732,1.04971 1.1732,2.74776 0,1.69805 -1.1732,2.74776 -1.1732,1.01883 -3.519599,1.01883 z"
             inkscape:connector-curvature="0" />
          <path
             id="path26054"
             style="font-style:normal;font-variant:normal;font-weight:normal;font-stretch:normal;font-size:63.22929764px;font-family:'Arial Rounded MT Bold';-inkscape-font-specification:'Arial Rounded MT Bold, ';fill:#ff0000;fill-opacity:1;stroke:#ff0000;stroke-width:2.5999999;stroke-linecap:round;stroke-linejoin:round;stroke-miterlimit:4;stroke-dasharray:none;stroke-opacity:1"
             d="m 82.358274,183.62114 q 7.039199,0 12.071609,2.87125 5.063283,2.84038 7.656677,8.11978 2.59338,5.24852 2.59338,12.34947 0,5.24852 -1.42018,9.53997 -1.42019,4.29144 -4.260572,7.44055 -2.840379,3.14912 -6.977452,4.8163 -4.137073,1.66718 -9.47822,1.66718 -5.310273,0 -9.509094,-1.69806 -4.19882,-1.72892 -7.008325,-4.84716 -2.809505,-3.11825 -4.260568,-7.50231 -1.420189,-4.38406 -1.420189,-9.47822 0,-5.21765 1.481936,-9.57084 1.512811,-4.35319 4.353189,-7.40968 2.840379,-3.0565 6.915705,-4.66193 4.075325,-1.6363 9.262104,-1.6363 z m 13.028693,23.27875 q 0,-4.97066 -1.605431,-8.61376 -1.605432,-3.64309 -4.600179,-5.49551 -2.963873,-1.8833 -6.823083,-1.8833 -2.747758,0 -5.094157,1.04971 -2.315527,1.01883 -4.013579,2.99475 -1.667179,1.97591 -2.655136,5.06328 -0.957085,3.05649 -0.957085,6.88483 0,3.85921 0.957085,6.97745 0.987957,3.11824 2.747757,5.18678 1.790674,2.03766 4.075326,3.0565 2.315526,1.01883 5.063284,1.01883 3.519599,0 6.452599,-1.7598 2.963873,-1.7598 4.692799,-5.43377 1.7598,-3.67397 1.7598,-9.04599 z"
             inkscape:connector-curvature="0" />
          <path
             id="path26056"
             style="font-style:normal;font-variant:normal;font-weight:normal;font-stretch:normal;font-size:63.22929764px;font-family:'Arial Rounded MT Bold';-inkscape-font-specification:'Arial Rounded MT Bold, ';fill:#ff0000;fill-opacity:1;stroke:#ff0000;stroke-width:2.5999999;stroke-linecap:round;stroke-linejoin:round;stroke-miterlimit:4;stroke-dasharray:none;stroke-opacity:1"
             d="m 130.21247,212.02492 -8.39764,0 0,12.81258 q 0,2.74776 -1.2967,4.16795 -1.29669,1.42019 -3.27261,1.42019 -2.06854,0 -3.33436,-1.38932 -1.26582,-1.42019 -1.26582,-4.13707 l 0,-34.88726 q 0,-3.02562 1.38932,-4.32232 1.38931,-1.29669 4.41493,-1.29669 l 11.76288,0 q 5.21765,0 8.02715,0.80271 2.77863,0.77185 4.78542,2.56252 2.03767,1.79067 3.08737,4.38406 1.04971,2.59339 1.04971,5.83513 0,6.9157 -4.26057,10.49705 -4.26057,3.55047 -12.68908,3.55047 z m -2.22291,-20.74711 -6.17473,0 0,13.83141 6.17473,0 q 3.24174,0 5.4029,-0.67922 2.19203,-0.67922 3.33435,-2.22291 1.14233,-1.54368 1.14233,-4.04445 0,-2.99475 -1.7598,-4.87804 -1.97592,-2.00679 -8.11978,-2.00679 z"
             inkscape:connector-curvature="0" />
          <path
             id="path26058"
             style="font-style:normal;font-variant:normal;font-weight:normal;font-stretch:normal;font-size:63.22929764px;font-family:'Arial Rounded MT Bold';-inkscape-font-specification:'Arial Rounded MT Bold, ';fill:#ff0000;fill-opacity:1;stroke:#ff0000;stroke-width:2.5999999;stroke-linecap:round;stroke-linejoin:round;stroke-miterlimit:4;stroke-dasharray:none;stroke-opacity:1"
             d="m 209.12561,215.35928 q 0,2.16116 -1.08058,4.6928 -1.04971,2.50077 -3.33436,4.93979 -2.28465,2.40814 -5.83513,3.92096 -3.55047,1.51281 -8.27414,1.51281 -3.58135,0 -6.51435,-0.67923 -2.933,-0.67922 -5.34115,-2.09941 -2.37727,-1.45106 -4.38406,-3.79746 -1.79067,-2.13028 -3.05649,-4.75455 -1.26582,-2.65513 -1.91417,-5.64988 -0.61747,-2.99475 -0.61747,-6.35998 0,-5.46464 1.57455,-9.78695 1.60543,-4.32232 4.56931,-7.37881 2.96387,-3.08737 6.94658,-4.6928 3.9827,-1.60543 8.49026,-1.60543 5.49551,0 9.78695,2.19203 4.29145,2.19203 6.5761,5.43376 2.28465,3.21087 2.28465,6.08212 0,1.57456 -1.11145,2.77863 -1.11145,1.20407 -2.68601,1.20407 -1.7598,0 -2.65514,-0.83358 -0.86446,-0.83359 -1.94504,-2.87126 -1.79067,-3.36523 -4.22969,-5.03241 -2.40815,-1.66718 -5.95862,-1.66718 -5.64989,0 -9.01512,4.29145 -3.33436,4.29144 -3.33436,12.1951 0,5.2794 1.48194,8.799 1.48194,3.48872 4.19882,5.21765 2.71688,1.72893 6.35998,1.72893 3.95183,0 6.66871,-1.94505 2.74776,-1.97591 4.13708,-5.77337 0.5866,-1.79068 1.45106,-2.90213 0.86446,-1.14233 2.77863,-1.14233 1.63631,0 2.80951,1.14233 1.1732,1.14233 1.1732,2.84038 z"
             inkscape:connector-curvature="0" />
          <path
             id="path26060"
             style="font-style:normal;font-variant:normal;font-weight:normal;font-stretch:normal;font-size:63.22929764px;font-family:'Arial Rounded MT Bold';-inkscape-font-specification:'Arial Rounded MT Bold, ';fill:#ff0000;fill-opacity:1;stroke:#ff0000;stroke-width:2.5999999;stroke-linecap:round;stroke-linejoin:round;stroke-miterlimit:4;stroke-dasharray:none;stroke-opacity:1"
             d="m 237.28241,183.62114 q 7.0392,0 12.07161,2.87125 5.06328,2.84038 7.65667,8.11978 2.59339,5.24852 2.59339,12.34947 0,5.24852 -1.42019,9.53997 -1.42019,4.29144 -4.26057,7.44055 -2.84038,3.14912 -6.97745,4.8163 -4.13707,1.66718 -9.47822,1.66718 -5.31027,0 -9.50909,-1.69806 -4.19882,-1.72892 -7.00833,-4.84716 -2.8095,-3.11825 -4.26057,-7.50231 -1.42019,-4.38406 -1.42019,-9.47822 0,-5.21765 1.48194,-9.57084 1.51281,-4.35319 4.35319,-7.40968 2.84038,-3.0565 6.9157,-4.66193 4.07533,-1.6363 9.26211,-1.6363 z m 13.02869,23.27875 q 0,-4.97066 -1.60543,-8.61376 -1.60543,-3.64309 -4.60018,-5.49551 -2.96387,-1.8833 -6.82308,-1.8833 -2.74776,0 -5.09416,1.04971 -2.31553,1.01883 -4.01358,2.99475 -1.66718,1.97591 -2.65514,5.06328 -0.95708,3.05649 -0.95708,6.88483 0,3.85921 0.95708,6.97745 0.98796,3.11824 2.74776,5.18678 1.79068,2.03766 4.07533,3.0565 2.31552,1.01883 5.06328,1.01883 3.5196,0 6.4526,-1.7598 2.96387,-1.7598 4.6928,-5.43377 1.7598,-3.67397 1.7598,-9.04599 z"
             inkscape:connector-curvature="0" />
          <path
             id="path26062"
             style="font-style:normal;font-variant:normal;font-weight:normal;font-stretch:normal;font-size:63.22929764px;font-family:'Arial Rounded MT Bold';-inkscape-font-specification:'Arial Rounded MT Bold, ';fill:#ff0000;fill-opacity:1;stroke:#ff0000;stroke-width:2.5999999;stroke-linecap:round;stroke-linejoin:round;stroke-miterlimit:4;stroke-dasharray:none;stroke-opacity:1"
             d="m 272.66363,189.6415 10.25006,30.34883 10.28093,-30.56494 q 0.80272,-2.40815 1.20408,-3.33436 0.40135,-0.95708 1.32756,-1.69805 0.92622,-0.77184 2.53165,-0.77184 1.1732,0 2.16115,0.5866 1.01884,0.5866 1.57456,1.57455 0.5866,0.95709 0.5866,1.94505 0,0.67922 -0.18524,1.48193 -0.18524,0.77184 -0.46311,1.54369 -0.27786,0.74096 -0.55572,1.54368 l -10.96016,29.57699 q -0.5866,1.69805 -1.1732,3.24173 -0.5866,1.51281 -1.35844,2.68601 -0.77184,1.14233 -2.06854,1.8833 -1.26582,0.74097 -3.11824,0.74097 -1.85242,0 -3.14911,-0.74097 -1.26582,-0.7101 -2.06854,-1.8833 -0.77184,-1.20407 -1.35844,-2.71688 -0.5866,-1.51281 -1.1732,-3.21086 l -10.77492,-29.33 q -0.27786,-0.80272 -0.5866,-1.57456 -0.27786,-0.77184 -0.49398,-1.66718 -0.18524,-0.89533 -0.18524,-1.51281 0,-1.57456 1.26582,-2.87125 1.26582,-1.29669 3.17999,-1.29669 2.3464,0 3.30349,1.45106 0.98795,1.42019 2.00679,4.5693 z"
             inkscape:connector-curvature="0" />
          <path
             id="path26064"
             style="font-style:normal;font-variant:normal;font-weight:normal;font-stretch:normal;font-size:63.22929764px;font-family:'Arial Rounded MT Bold';-inkscape-font-specification:'Arial Rounded MT Bold, ';fill:#ff0000;fill-opacity:1;stroke:#ff0000;stroke-width:2.5999999;stroke-linecap:round;stroke-linejoin:round;stroke-miterlimit:4;stroke-dasharray:none;stroke-opacity:1"
             d="m 309.86641,224.8375 0,-35.6591 q 0,-2.77863 1.26582,-4.16795 1.26582,-1.38931 3.27261,-1.38931 2.06854,0 3.33436,1.38931 1.2967,1.35844 1.2967,4.16795 l 0,35.6591 q 0,2.8095 -1.2967,4.19882 -1.26582,1.38932 -3.33436,1.38932 -1.97591,0 -3.27261,-1.38932 -1.26582,-1.42019 -1.26582,-4.19882 z"
             inkscape:connector-curvature="0" />
          <path
             id="path26066"
             style="font-style:normal;font-variant:normal;font-weight:normal;font-stretch:normal;font-size:63.22929764px;font-family:'Arial Rounded MT Bold';-inkscape-font-specification:'Arial Rounded MT Bold, ';fill:#ff0000;fill-opacity:1;stroke:#ff0000;stroke-width:2.5999999;stroke-linecap:round;stroke-linejoin:round;stroke-miterlimit:4;stroke-dasharray:none;stroke-opacity:1"
             d="m 334.93584,184.39298 11.94811,0 q 4.66193,0 7.99629,0.86446 3.33436,0.86446 6.05124,3.24174 7.07007,6.05124 7.07007,18.40071 0,4.07533 -0.71009,7.44056 -0.7101,3.36523 -2.19203,6.08211 -1.48194,2.68601 -3.79747,4.8163 -1.82154,1.6363 -3.9827,2.62426 -2.16116,0.98796 -4.66193,1.38932 -2.46989,0.40135 -5.58813,0.40135 l -11.94812,0 q -2.50077,0 -3.76659,-0.74096 -1.26582,-0.77185 -1.66718,-2.13029 -0.37048,-1.38931 -0.37048,-3.58135 l 0,-33.1892 q 0,-2.96388 1.32757,-4.29144 1.32757,-1.32757 4.29144,-1.32757 z m 3.55047,7.25531 0,30.71931 6.94658,0 q 2.28465,0 3.58135,-0.12349 1.29669,-0.12349 2.68601,-0.61747 1.38931,-0.49398 2.40815,-1.38932 4.60017,-3.89008 4.60017,-13.39918 0,-6.69959 -2.03766,-10.03394 -2.00679,-3.33436 -4.97066,-4.2297 -2.96387,-0.92621 -7.1627,-0.92621 l -6.05124,0 z"
             inkscape:connector-curvature="0" />
          <path
             id="path26068"
             style="font-style:normal;font-variant:normal;font-weight:normal;font-stretch:normal;font-size:63.22929764px;font-family:'Arial Rounded MT Bold';-inkscape-font-specification:'Arial Rounded MT Bold, ';fill:#ff0000;fill-opacity:1;stroke:#ff0000;stroke-width:2.5999999;stroke-linecap:round;stroke-linejoin:round;stroke-miterlimit:4;stroke-dasharray:none;stroke-opacity:1"
             d="m 393.01801,216.93384 -9.75608,0 q -2.2229,0 -3.3961,-1.01883 -1.14233,-1.04971 -1.14233,-2.68601 0,-1.66718 1.11145,-2.68601 1.14233,-1.04971 3.42698,-1.04971 l 9.75608,0 q 2.28466,0 3.39611,1.04971 1.14233,1.01883 1.14233,2.68601 0,1.6363 -1.11146,2.68601 -1.11145,1.01883 -3.42698,1.01883 z"
             inkscape:connector-curvature="0" />
          <path
             sodipodi:nodetypes="cssccsccscsssssscssssc"
             inkscape:connector-curvature="0"
             id="path26070"
             transform="scale(1.0974769,0.91118091)"
             d="m 377.90625,202.0625 c -0.88146,0 -1.48001,0.20277 -1.79883,0.60938 -0.31882,0.4066 -1.00444,1.49003 -2.05469,3.25195 -1.05023,1.76192 -2.25983,3.3562 -3.6289,4.77929 -0.51971,0.72003 -1.4125,0.17307 -4.45383,2.57373 -0.60014,0.54213 -0.90039,1.38899 -0.90039,2.54102 0,0.9939 0.30025,1.87455 0.90039,2.64257 3.79268,2.81159 6.37798,-0.79273 7.57688,-1.89599 l 0,30.83399 c 0,0.49164 0.0307,0.94271 0.082,1.36914 l -2.69141,0 c -1.15434,0 -2.08398,0.92769 -2.08398,2.08203 0,1.15434 0.92964,2.08398 2.08398,2.08398 l 12.8457,0 c 1.15434,0 2.08399,-0.92964 2.08399,-2.08398 0,-1.15434 -0.92965,-2.08203 -2.08399,-2.08203 l -2.78906,0 c 0.12882,-0.78901 0.20508,-1.67475 0.20508,-2.69141 l 0,-38.79687 c 0,-1.62639 -0.30025,-2.90199 -0.90039,-3.82813 -0.60014,-0.92614 -1.3986,-1.38867 -2.39258,-1.38867 z"
             style="font-style:normal;font-variant:normal;font-weight:normal;font-stretch:normal;font-size:63.22929764px;font-family:'Arial Rounded MT Bold';-inkscape-font-specification:'Arial Rounded MT Bold, ';fill:#ff0000;fill-opacity:1;stroke:#ff0000;stroke-width:2.5999999;stroke-linecap:round;stroke-linejoin:round;stroke-miterlimit:4;stroke-dasharray:none;stroke-opacity:1" />
          <path
             sodipodi:nodetypes="ccscccscscsscsscccsccssscccsscccccsccc"
             inkscape:connector-curvature="0"
             id="path26072"
             style="font-style:normal;font-variant:normal;font-weight:normal;font-stretch:normal;font-size:63.22929764px;font-family:'Arial Rounded MT Bold';-inkscape-font-specification:'Arial Rounded MT Bold, ';fill:#ff0000;fill-opacity:1;stroke:#ff0000;stroke-width:2.5999999;stroke-linecap:round;stroke-linejoin:round;stroke-miterlimit:4;stroke-dasharray:none;stroke-opacity:1"
             d="m 455.40495,209.36979 c -1.35845,1.60543 -2.88155,2.81979 -4.56931,3.64309 -1.66718,0.80271 -3.5196,1.20407 -5.55726,1.20407 -1.93475,0 -3.74601,-0.37048 -5.43377,-1.11145 -1.66718,-0.76155 -3.11824,-1.81126 -4.35319,-3.14911 -1.21436,-1.35845 -2.15086,-2.93301 -2.8095,-4.72368 -0.65864,-1.81125 -0.98796,-3.70484 -0.98796,-5.68076 0,-2.11999 0.37048,-4.12677 1.11145,-6.02036 0.74097,-1.91417 1.80097,-3.57106 3.17999,-4.97067 1.37903,-1.39961 3.01533,-2.49048 4.90892,-3.27261 1.91417,-0.78213 4.02387,-1.1732 6.3291,-1.1732 2.65514,0 5.02212,0.48369 7.10095,1.45107 2.07883,0.96737 3.82833,2.37727 5.24852,4.22969 1.42019,1.83184 2.51106,4.14737 3.27261,6.94658 0.76155,2.79921 1.14233,5.96891 1.14233,9.50909 0,3.95183 -0.40136,7.44056 -1.20407,10.46618 -0.80272,3.00504 -1.97592,5.53668 -3.5196,7.59493 -1.52311,2.03766 -3.35495,3.56076 -5.49552,4.5693 -2.14057,0.98796 -4.5693,1.48194 -7.28619,1.48194 -2.67571,0 -5.00153,-0.50427 -6.97745,-1.51281 -1.97591,-1.02913 -3.47843,-2.29495 -4.50756,-3.79747 -1.02912,-1.5231 -1.54368,-2.98445 -1.54368,-4.38406 0,-0.86446 0.31903,-1.6363 0.95708,-2.31552 0.63806,-0.67923 1.45107,-1.01884 2.43903,-1.01884 0.90563,0 1.71863,0.25728 2.43902,0.77185 0.72038,0.49398 1.26581,1.24524 1.6363,2.25378 0.45281,1.23495 1.20407,2.23319 2.25378,2.99474 1.04971,0.74097 2.2332,1.11146 3.55047,1.11146 1.1732,0 2.28465,-0.29845 3.33436,-0.89534 1.04971,-0.59689 1.94504,-1.44077 2.68601,-2.53164 1.48194,-2.20233 2.36699,-6.09241 2.65514,-11.67025 z m -0.9565,-11.59541 c -0.39752,-2.87877 -1.49619,-5.31547 -4.41552,-6.83618 -7.97474,-2.77536 -11.1616,9.41878 -8.21211,13.33712 1.35844,1.62601 3.07708,2.43902 5.15591,2.43902 1.27611,0 2.49047,-0.32932 3.64309,-0.98795 1.1732,-0.67923 2.11999,-1.6569 2.84038,-2.933 0.74096,-1.27612 0.98825,-3.29008 0.98825,-5.01901 z" />
        </g>
      </g>
    </g>
  </g>
</svg>
